#!OML:ASF I:\Actors\actors\Patient Classification 2\Patient 1\Session 1\actor1.ASF
:FULLY-SPECIFIED
:DEGREES
377
root -0.726242 18.6536 4.65171 -1.28257 1.18281 -2.07789
lowerback 7.45232 1.31215 -1.04459
upperback 1.39924 1.65782 -0.178131
thorax -2.75505 0.833014 0.241957
lowerneck -14.9642 -6.38438 -5.18081
upperneck 23.4128 -9.79429 8.1232
head 10.6691 -4.02826 2.40016
rclavicle 9.34288e-015 -1.19271e-014
rhumerus 10.8506 30.1533 -68.9552
rradius 91.8357
rwrist -9.38012
rhand -44.3975 -41.1381
rfingers 7.12502
rthumb -17.2038 -70.3965
lclavicle 9.34288e-015 -1.19271e-014
lhumerus 10.981 -31.5876 72.4099
lradius 81.6437
lwrist 23.7551
lhand -0.860597 -12.3695
lfingers 7.12502
lthumb 24.7658 16.0471
rfemur 0 0 0
rtibia 0
rfoot 0 0
rtoes 0
lfemur -7.20557 -4.50556 -11.6856
ltibia 24.9383
lfoot -19.8667 12.2194
ltoes -56.1677
378
root -0.718819 18.6529 4.65207 -1.28969 0.811631 -1.98901
lowerback 7.50339 1.25622 -0.928586
upperback 1.37638 1.58773 -0.304605
thorax -2.79945 0.796876 0.0519169
lowerneck -14.9414 -6.39336 -4.98663
upperneck 23.6502 -9.88852 8.13949
head 10.7503 -4.04769 2.36187
rclavicle -2.70844e-014 9.54166e-015
rhumerus 12.3989 29.8819 -67.2971
rradius 89.5855
rwrist -17.3023
rhand -39.6368 -44.3457
rfingers 7.12502
rthumb -12.6176 -73.9447
lclavicle -2.70844e-014 9.54166e-015
lhumerus 11.8405 -30.7432 73.2104
lradius 83.0152
lwrist 24.7141
lhand -4.33969 -14.518
lfingers 7.12502
lthumb 21.4277 14.317
rfemur 0 0 0
rtibia 0
rfoot 0 0
rtoes 0
lfemur -7.06885 -4.31468 -11.8159
ltibia 24.9015
lfoot -19.9673 12.3974
ltoes -56.1815
379
root -0.711015 18.652 4.65365 -1.2995 0.527551 -1.92899
lowerback 7.51944 1.16385 -0.670092
upperback 1.35862 1.47851 -0.514177
thorax -2.81371 0.739669 -0.298907
lowerneck -14.848 -6.37296 -4.70404
upperneck 23.8483 -9.98772 8.2461
head 10.8047 -4.05393 2.34234
rclavicle 1.19271e-015 5.1684e-015
rhumerus 13.8371 29.4814 -65.7626
rradius 87.7598
rwrist -25.5783
rhand -31.5875 -48.2005
rfingers 7.12502
rthumb -4.85043 -78.1249
lclavicle 1.19271e-015 5.1684e-015
lhumerus 12.7617 -30.0894 73.9219
lradius 83.8509
lwrist 26.4828
lhand -9.1013 -18.3073
lfingers 7.12502
lthumb 16.8489 10.9818
rfemur 0 0 0
rtibia 0
rfoot 0 0
rtoes 0
lfemur -6.96006 -4.08695 -11.9032
ltibia 24.8835
lfoot -20.0532 12.4247
ltoes -56.1542
380
root -0.706091 18.6517 4.655 -1.29994 0.391702 -1.90288
lowerback 7.59593 1.00491 -0.415424
upperback 1.28451 1.27983 -0.714709
thorax -2.92254 0.637811 -0.631572
lowerneck -14.7586 -6.32939 -4.45413
upperneck 24.183 -10.0782 8.41788
head 10.9161 -4.04722 2.35401
rclavicle -5.01931e-015 1.98785e-015
rhumerus 15.0739 29.342 -64.1737
rradius 86.3625
rwrist -32.569
rhand -24.3894 -54.8877
rfingers 7.12502
rthumb 2.10128 -84.857
lclavicle -5.01931e-015 1.98785e-015
lhumerus 13.8428 -29.9626 74.0627
lradius 83.9551
lwrist 28.3572
lhand -15.2223 -24.3783
lfingers 7.12502
lthumb 10.9504 5.31612
rfemur 0 0 0
rtibia 0
rfoot 0 0
rtoes 0
lfemur -6.91479 -3.90128 -11.9364
ltibia 24.8756
lfoot -20.0597 12.3747
ltoes -56.1736
381
root -0.703556 18.6529 4.6574 -1.30203 0.41903 -1.85953
lowerback 7.73756 0.810397 -0.39533
upperback 1.1627 1.01921 -0.753259
thorax -3.12817 0.507546 -0.660382
lowerneck -14.6126 -6.31687 -4.42734
upperneck 24.5741 -10.1529 8.5525
head 11.0465 -4.05743 2.39409
rclavicle 5.46658e-016 1.19271e-015
rhumerus 15.9554 29.9184 -61.9614
rradius 85.4636
rwrist -38.0187
rhand -24.9967 -57.1342
rfingers 7.12502
rthumb 1.51476 -87.1085
lclavicle 5.46658e-016 1.19271e-015
lhumerus 15.149 -30.2958 73.6844
lradius 83.3739
lwrist 29.0212
lhand -21.4656 -29.044
lfingers 7.12502
lthumb 4.92477 0.878748
rfemur 0 0 0
rtibia 0
rfoot 0 0
rtoes 0
lfemur -6.9099 -3.86622 -11.9892
ltibia 24.8722
lfoot -20.0256 12.3403
ltoes -56.2044
382
root -0.701125 18.6559 4.66266 -1.26263 0.556621 -1.81142
lowerback 7.79379 0.607787 -0.435122
upperback 1.06565 0.745931 -0.729362
thorax -3.26287 0.372167 -0.586805
lowerneck -14.3991 -6.35548 -4.54145
upperneck 24.8597 -10.2454 8.6534
head 11.1316 -4.09785 2.44399
rclavicle -6.21202e-015 7.15625e-015
rhumerus 16.303 31.2623 -59.1714
rradius 86.2206
rwrist -37.2214
rhand -27.2552 -53.598
rfingers 7.12502
rthumb -0.666572 -83.5767
lclavicle -6.21202e-015 7.15625e-015
lhumerus 16.8343 -30.8262 72.7127
lradius 82.3329
lwrist 27.3347
lhand -24.548 -30.1905
lfingers 7.12502
lthumb 1.94808 -0.219688
rfemur 0 0 0
rtibia 0
rfoot 0 0
rtoes 0
lfemur -6.96539 -3.91543 -12.0484
ltibia 24.8676
lfoot -19.9955 12.2706
ltoes -56.2017
383
root -0.700721 18.6596 4.67114 -1.18567 0.744323 -1.83929
lowerback 8.00422 0.385377 -0.349327
upperback 0.856888 0.454609 -0.712026
thorax -3.59784 0.226156 -0.589728
lowerneck -14.105 -6.42128 -4.7119
upperneck 25.166 -10.3441 8.67089
head 11.2071 -4.15864 2.47471
rclavicle -1.06847e-014 9.93923e-015
rhumerus 15.824 31.6059 -57.37
rradius 88.3886
rwrist -30.6521
rhand -27.1918 -50.2818
rfingers 7.12502
rthumb -0.60536 -80.2607
lclavicle -1.06847e-014 9.93923e-015
lhumerus 18.541 -31.3683 71.4005
lradius 80.902
lwrist 24.2979
lhand -21.7811 -26.3357
lfingers 7.12502
lthumb 4.62011 3.59389
rfemur 0 0 0
rtibia 0
rfoot 0 0
rtoes 0
lfemur -7.06055 -3.93087 -12.0079
ltibia 24.8458
lfoot -19.9297 12.1286
ltoes -56.2736
384
root -0.701589 18.6629 4.67918 -1.07619 0.93881 -1.89196
lowerback 8.09769 0.144871 -0.239442
upperback 0.745192 0.14425 -0.678704
thorax -3.76792 0.0705522 -0.583792
lowerneck -13.9442 -6.49719 -4.90469
upperneck 25.436 -10.415 8.58483
head 11.2881 -4.21805 2.47155
rclavicle -4.96962e-015 3.57812e-015
rhumerus 14.9218 30.9896 -56.8708
rradius 90.8768
rwrist -24.892
rhand -27.8387 -46.8341
rfingers 7.12502
rthumb -1.23012 -76.8103
lclavicle -4.96962e-015 3.57812e-015
lhumerus 20.4623 -31.7942 69.9019
lradius 79.1072
lwrist 22.6767
lhand -16.8521 -22.19
lfingers 7.12502
lthumb 9.37801 7.58142
rfemur 0 0 0
rtibia 0
rfoot 0 0
rtoes 0
lfemur -7.18311 -3.961 -11.9333
ltibia 24.7925
lfoot -19.8701 11.9971
ltoes -56.2965
385
root -0.704643 18.665 4.68666 -0.961269 1.18639 -1.90709
lowerback 8.04513 -0.146565 -0.223918
upperback 0.711821 -0.240039 -0.631751
thorax -3.77608 -0.119973 -0.500952
lowerneck -13.7742 -6.51338 -5.1253
upperneck 25.6601 -10.3801 8.4707
head 11.341 -4.2376 2.4788
rclavicle 3.23025e-015 -5.96354e-015
rhumerus 13.7186 29.7397 -57.498
rradius 93.6364
rwrist -20.9228
rhand -28.3174 -43.022
rfingers 7.12502
rthumb -1.69241 -72.9951
lclavicle 3.23025e-015 -5.96354e-015
lhumerus 22.3656 -32.1463 68.3099
lradius 77.4365
lwrist 23.592
lhand -10.5176 -17.5127
lfingers 7.12502
lthumb 15.4852 11.8872
rfemur 0 0 0
rtibia 0
rfoot 0 0
rtoes 0
lfemur -7.30805 -4.03274 -11.8891
ltibia 24.712
lfoot -19.808 11.8545
ltoes -56.2273
386
root -0.713024 18.6655 4.70005 -0.956042 1.56143 -1.91657
lowerback 7.93758 -0.527643 -0.359677
upperback 0.762131 -0.753675 -0.525075
thorax -3.66416 -0.37196 -0.258222
lowerneck -13.5172 -6.45349 -5.46348
upperneck 25.8117 -10.2142 8.4005
head 11.3473 -4.20948 2.54365
rclavicle 1.2424e-015 -4.37326e-015
rhumerus 12.548 28.4297 -58.6732
rradius 96.4045
rwrist -18.6488
rhand -28.6726 -40.2424
rfingers 7.12502
rthumb -2.03555 -70.2124
lclavicle 1.2424e-015 -4.37326e-015
lhumerus 23.9231 -32.2698 66.9739
lradius 76.1203
lwrist 25.7646
lhand -4.37941 -12.7796
lfingers 7.12502
lthumb 21.3896 16.0598
rfemur 0 0 0
rtibia 0
rfoot 0 0
rtoes 0
lfemur -7.30622 -4.13308 -11.8311
ltibia 24.62
lfoot -19.6746 11.6204
ltoes -56.2538
387
root -0.718782 18.6653 4.71549 -0.934943 1.83968 -1.89668
lowerback 7.77025 -0.895194 -0.532095
upperback 0.849711 -1.25074 -0.39781
thorax -3.47442 -0.615861 0.020791
lowerneck -13.3109 -6.39606 -5.91355
upperneck 25.9631 -10.0323 8.36076
head 11.3703 -4.18011 2.63933
rclavicle 5.26779e-015 -1.23246e-014
rhumerus 11.5429 27.2335 -60.0314
rradius 99.0141
rwrist -17.3737
rhand -29.8282 -39.2966
rfingers 7.12502
rthumb -3.15151 -69.2531
lclavicle 5.26779e-015 -1.23246e-014
lhumerus 25.0594 -32.2025 66.1049
lradius 75.2841
lwrist 27.4572
lhand -1.59391 -12.6762
lfingers 7.12502
lthumb 24.0628 15.8351
rfemur 0 0 0
rtibia 0
rfoot 0 0
rtoes 0
lfemur -7.29057 -4.22596 -11.8248
ltibia 24.5287
lfoot -19.5628 11.4743
ltoes -56.3599
388
root -0.716716 18.666 4.72485 -0.774375 1.84316 -1.84601
lowerback 7.54167 -1.14785 -0.61352
upperback 0.906873 -1.58876 -0.326102
thorax -3.28213 -0.783126 0.170398
lowerneck -13.2462 -6.3977 -6.29729
upperneck 26.1717 -9.95658 8.33307
head 11.45 -4.1856 2.70891
rclavicle 1.27222e-014 -1.19271e-015
rhumerus 10.3353 25.9946 -61.5412
rradius 101.497
rwrist -16.1455
rhand -31.3191 -39.1456
rfingers 7.12502
rthumb -4.59124 -69.0759
lclavicle 1.27222e-014 -1.19271e-015
lhumerus 25.8739 -32.0636 65.6681
lradius 75.1254
lwrist 27.4854
lhand -0.999053 -12.7134
lfingers 7.12502
lthumb 24.6331 15.7214
rfemur 0 0 0
rtibia 0
rfoot 0 0
rtoes 0
lfemur -7.39498 -4.29394 -11.8892
ltibia 24.4516
lfoot -19.5643 11.5586
ltoes -56.3723
389
root -0.715224 18.6673 4.73256 -0.631707 1.73518 -1.79733
lowerback 7.38546 -1.33079 -0.686572
upperback 0.951447 -1.83557 -0.302768
thorax -3.14416 -0.90553 0.255733
lowerneck -13.1839 -6.43727 -6.57933
upperneck 26.3238 -9.97775 8.37961
head 11.5166 -4.21778 2.77343
rclavicle -1.98536e-014 -7.55382e-015
rhumerus 8.68959 24.6966 -63.1971
rradius 103.809
rwrist -14.233
rhand -32.7183 -38.7098
rfingers 7.12502
rthumb -5.94225 -68.6065
lclavicle -1.98536e-014 -7.55382e-015
lhumerus 26.3846 -31.7958 65.8398
lradius 75.6149
lwrist 26.3446
lhand -2.04059 -13.0252
lfingers 7.12502
lthumb 23.6345 15.5421
rfemur 0 0 0
rtibia 0
rfoot 0 0
rtoes 0
lfemur -7.46265 -4.32981 -11.9479
ltibia 24.3909
lfoot -19.6285 11.6898
ltoes -56.3073
390
root -0.715426 18.6682 4.74459 -0.590469 1.57392 -1.77823
lowerback 7.35791 -1.44688 -0.727853
upperback 0.992279 -1.99311 -0.31391
thorax -3.08427 -0.983818 0.281469
lowerneck -13.0325 -6.52196 -6.79918
upperneck 26.3596 -10.0926 8.49198
head 11.5303 -4.28361 2.83858
rclavicle 2.00773e-014 4.37326e-015
rhumerus 6.53745 23.4437 -64.7869
rradius 106.116
rwrist -11.8773
rhand -34.0962 -38.1954
rfingers 7.12502
rthumb -7.2724 -68.0504
lclavicle 2.00773e-014 4.37326e-015
lhumerus 26.566 -31.429 66.8343
lradius 76.6401
lwrist 25.4209
lhand -3.52803 -13.3445
lfingers 7.12502
lthumb 22.2071 15.3998
rfemur 0 0 0
rtibia 0
rfoot 0 0
rtoes 0
lfemur -7.38139 -4.29319 -11.9723
ltibia 24.3261
lfoot -19.7093 11.7965
ltoes -56.2843
391
root -0.714351 18.6691 4.76005 -0.566567 1.34185 -1.75377
lowerback 7.41771 -1.48838 -0.743384
upperback 0.995663 -2.05247 -0.38279
thorax -3.11562 -1.0133 0.226709
lowerneck -12.8692 -6.66325 -6.91727
upperneck 26.3342 -10.3156 8.62317
head 11.5244 -4.38754 2.8765
rclavicle -1.91827e-014 8.74653e-015
rhumerus 3.85577 22.2676 -66.1688
rradius 108.417
rwrist -9.19261
rhand -35.6687 -37.6714
rfingers 7.12502
rthumb -8.79015 -67.4684
lclavicle -1.91827e-014 8.74653e-015
lhumerus 26.4408 -30.9701 68.6209
lradius 77.8923
lwrist 24.9746
lhand -4.78643 -14.0499
lfingers 7.12502
lthumb 20.9986 14.8334
rfemur 0 0 0
rtibia 0
rfoot 0 0
rtoes 0
lfemur -7.24741 -4.18972 -12.0109
ltibia 24.2496
lfoot -19.7924 11.9049
ltoes -56.279
